# xmcd
# Copyright (C) 1995-1998 Ti Kan
#
# Track frame offsets:
#       150
#       4272
#       8394
#
# Disc length: 222 seconds
#
# Revision: 0
# Processed by: cddbd v1.5.2PL0 Copyright (c) Steve Scherf et al.
# Submitted via: CD-Import v1.0
#
DISCID=1000dc03
DTITLE=Andrew - 
DYEAR=1900
DGENRE=
TTITLE0=Stadttalkteaser8mai
TTITLE1=Stadttalkteaser2april
TTITLE2=Kulinarium1.april
EXTD=
EXTT0=
EXTT1=
EXTT2=
PLAYORDER=
